<svg version="1.1" id="Layer_1" xmlns="http://www.w3.org/2000/svg" xmlns:xlink="http://www.w3.org/1999/xlink" x="0px" y="0px"
	 width="100%" viewBox="0 0 300 51" enable-background="new 0 0 300 51" xml:space="preserve">
<path fill="#FEF9FB" opacity="1.000000" stroke="none" 
	d="
M255.000000,52.000000 
	C170.000031,52.000000 85.500061,52.000000 1.000068,52.000000 
	C1.000045,35.000038 1.000045,18.000072 1.000023,1.000082 
	C100.999931,1.000054 200.999863,1.000054 300.999817,1.000027 
	C300.999878,17.999922 300.999878,34.999844 300.999939,51.999886 
	C285.833344,52.000000 270.666656,52.000000 255.000000,52.000000 
M221.324448,30.590899 
	C222.169632,34.298286 223.014816,38.005672 223.881592,41.807751 
	C225.119476,41.807751 226.720184,41.807751 228.542160,41.807751 
	C228.542160,31.203764 228.542160,20.806871 228.542160,10.287254 
	C226.620468,10.287254 224.920471,10.287254 222.688263,10.287254 
	C222.688263,14.881915 222.688263,19.177790 222.688263,23.423216 
	C216.075882,19.550215 214.012085,10.400908 204.894638,9.747029 
	C204.894638,20.802078 204.894638,31.243509 204.894638,41.813618 
	C206.644638,41.813618 208.238205,41.813618 210.410721,41.813618 
	C210.410721,34.474472 210.410721,27.317322 210.410721,19.127556 
	C214.418350,23.317795 217.618713,26.663986 221.324448,30.590899 
M261.454071,35.541260 
	C261.546692,29.559547 261.829590,23.572643 261.666504,17.597910 
	C261.553375,13.451648 259.044189,10.508416 254.939743,10.195345 
	C249.221008,9.759141 243.444138,10.085506 237.687897,10.085506 
	C237.687897,21.005053 237.687897,31.405573 237.687897,42.024456 
	C239.160934,42.024456 240.318253,42.025406 241.475555,42.024288 
	C245.471100,42.020428 249.466766,42.034401 253.462143,42.006287 
	C257.390106,41.978645 260.127289,40.273232 261.454071,35.541260 
M191.490067,15.040258 
	C188.807724,12.769142 186.278656,7.963510 182.628189,10.276294 
	C178.338364,12.994147 173.571960,17.269047 172.257736,21.808344 
	C170.488068,27.920748 171.818649,34.930748 171.818649,41.780544 
	C173.670227,41.780544 175.235687,41.780544 177.236176,41.780544 
	C177.236176,38.520905 177.236176,35.437832 177.236176,32.244446 
	C181.759003,32.244446 185.845383,32.244446 190.342468,32.244446 
	C190.342468,35.561592 190.342468,38.649956 190.342468,41.812531 
	C192.356979,41.812531 193.957779,41.812531 195.945984,41.812531 
	C195.945984,36.157467 195.764481,30.683779 196.006592,25.228888 
	C196.182693,21.261335 195.168167,18.029478 191.490067,15.040258 
M73.705170,39.166809 
	C73.705170,36.895710 73.705170,34.624611 73.705170,32.263260 
	C78.231400,32.263260 82.306740,32.263260 86.822021,32.263260 
	C86.822021,35.568008 86.822021,38.640434 86.822021,41.724041 
	C88.832497,41.724041 90.392960,41.724041 92.188751,41.724041 
	C92.188751,36.140312 91.690460,30.781511 92.305222,25.553600 
	C93.233765,17.657248 87.011429,14.677180 82.726219,10.388592 
	C81.945686,9.607442 79.216019,9.450178 78.503281,10.147219 
	C74.825951,13.743568 69.705055,17.223686 68.504860,21.667292 
	C66.799721,27.980349 68.071823,35.097546 68.071823,43.227573 
	C70.559532,41.836433 72.129501,40.958496 73.705170,39.166809 
M40.226803,28.489359 
	C40.226803,32.920235 40.226803,37.351109 40.226803,41.726494 
	C47.260151,41.726494 53.662067,41.726494 60.317966,41.726494 
	C60.227802,39.998203 60.153564,38.575142 60.064400,36.866005 
	C55.321049,36.866005 50.881138,36.866005 46.057041,36.866005 
	C46.057041,27.827681 46.057041,19.081690 46.057041,10.290550 
	C43.949726,10.290550 42.242428,10.290550 40.226807,10.290550 
	C40.226807,16.226690 40.226807,21.860634 40.226803,28.489359 
M144.558197,10.062551 
	C144.558197,20.573246 144.558197,31.083941 144.558197,41.705856 
	C150.878891,41.705856 157.403091,41.705856 164.095383,41.705856 
	C163.969742,39.978355 163.867432,38.571754 163.743484,36.867519 
	C158.975418,36.867519 154.551025,36.867519 149.743530,36.867519 
	C149.743530,27.832357 149.743530,19.119419 149.743530,10.183116 
	C148.068344,10.107828 146.780975,10.049971 144.558197,10.062551 
M115.942940,40.497166 
	C117.189423,36.056381 113.009773,37.464039 111.353279,36.560276 
	C111.353279,29.267879 111.353279,22.339056 111.353279,15.199055 
	C112.930267,15.050044 114.330261,14.917758 115.686180,14.789636 
	C115.686180,13.058204 115.686180,11.668665 115.686180,10.260157 
	C110.674973,10.260157 105.930428,10.260157 100.974342,10.260157 
	C101.078697,11.958817 101.166039,13.380465 101.246719,14.693747 
	C102.934059,14.988843 104.303673,15.228373 105.546600,15.445746 
	C105.546600,22.768841 105.546600,29.697241 105.546600,36.721889 
	C103.947388,36.932644 102.554527,37.116207 100.988831,37.322544 
	C101.078217,39.027729 101.151001,40.416203 101.248131,42.269157 
	C106.388855,41.968472 111.128227,41.691265 115.942940,40.497166 
z"/>
<path fill="#090909" opacity="1.000000" stroke="none" 
	d="
M221.071762,30.300539 
	C217.618713,26.663986 214.418350,23.317795 210.410721,19.127556 
	C210.410721,27.317322 210.410721,34.474472 210.410721,41.813618 
	C208.238205,41.813618 206.644638,41.813618 204.894638,41.813618 
	C204.894638,31.243509 204.894638,20.802078 204.894638,9.747029 
	C214.012085,10.400908 216.075882,19.550215 222.688263,23.423216 
	C222.688263,19.177790 222.688263,14.881915 222.688263,10.287254 
	C224.920471,10.287254 226.620468,10.287254 228.542160,10.287254 
	C228.542160,20.806871 228.542160,31.203764 228.542160,41.807751 
	C226.720184,41.807751 225.119476,41.807751 223.881592,41.807751 
	C223.014816,38.005672 222.169632,34.298286 221.071762,30.300539 
z"/>
<path fill="#0E0E0E" opacity="1.000000" stroke="none" 
	d="
M261.345032,35.945793 
	C260.127289,40.273232 257.390106,41.978645 253.462143,42.006287 
	C249.466766,42.034401 245.471100,42.020428 241.475555,42.024288 
	C240.318253,42.025406 239.160934,42.024456 237.687897,42.024456 
	C237.687897,31.405573 237.687897,21.005053 237.687897,10.085506 
	C243.444138,10.085506 249.221008,9.759141 254.939743,10.195345 
	C259.044189,10.508416 261.553375,13.451648 261.666504,17.597910 
	C261.829590,23.572643 261.546692,29.559547 261.345032,35.945793 
M249.376007,15.195292 
	C247.297348,15.195292 245.218689,15.195292 243.247696,15.195292 
	C243.247696,22.845442 243.247696,29.766035 243.247696,36.979141 
	C245.953049,36.979141 248.434845,36.779953 250.872025,37.024822 
	C254.735626,37.413002 256.410553,36.107033 256.064819,32.018536 
	C255.757767,28.387331 255.717667,24.681923 256.072205,21.059431 
	C256.518036,16.504332 254.999832,14.420411 249.376007,15.195292 
z"/>
<path fill="#070707" opacity="1.000000" stroke="none" 
	d="
M191.753693,15.296549 
	C195.168167,18.029478 196.182693,21.261335 196.006592,25.228888 
	C195.764481,30.683779 195.945984,36.157467 195.945984,41.812531 
	C193.957779,41.812531 192.356979,41.812531 190.342468,41.812531 
	C190.342468,38.649956 190.342468,35.561592 190.342468,32.244446 
	C185.845383,32.244446 181.759003,32.244446 177.236176,32.244446 
	C177.236176,35.437832 177.236176,38.520905 177.236176,41.780544 
	C175.235687,41.780544 173.670227,41.780544 171.818649,41.780544 
	C171.818649,34.930748 170.488068,27.920748 172.257736,21.808344 
	C173.571960,17.269047 178.338364,12.994147 182.628189,10.276294 
	C186.278656,7.963510 188.807724,12.769142 191.753693,15.296549 
M190.234116,24.786663 
	C188.381470,21.429031 186.528824,18.071400 184.350861,14.124193 
	C180.716171,18.794489 175.442657,20.828981 177.842560,27.562838 
	C181.912827,26.946190 186.064301,26.317242 190.234116,24.786663 
z"/>
<path fill="#070707" opacity="1.000000" stroke="none" 
	d="
M73.702324,39.623684 
	C72.129501,40.958496 70.559532,41.836433 68.071823,43.227573 
	C68.071823,35.097546 66.799721,27.980349 68.504860,21.667292 
	C69.705055,17.223686 74.825951,13.743568 78.503281,10.147219 
	C79.216019,9.450178 81.945686,9.607442 82.726219,10.388592 
	C87.011429,14.677180 93.233765,17.657248 92.305222,25.553600 
	C91.690460,30.781511 92.188751,36.140312 92.188751,41.724041 
	C90.392960,41.724041 88.832497,41.724041 86.822021,41.724041 
	C86.822021,38.640434 86.822021,35.568008 86.822021,32.263260 
	C82.306740,32.263260 78.231400,32.263260 73.705170,32.263260 
	C73.705170,34.624611 73.705170,36.895710 73.702324,39.623684 
M86.663223,26.485544 
	C88.022934,20.722818 83.497116,18.483461 80.147865,15.176916 
	C77.042557,18.682585 72.067917,20.768831 74.112869,26.903072 
	C77.981171,26.903072 81.933731,26.903072 86.663223,26.485544 
z"/>
<path fill="#0B0A0A" opacity="1.000000" stroke="none" 
	d="
M40.226807,27.991966 
	C40.226807,21.860634 40.226807,16.226690 40.226807,10.290550 
	C42.242428,10.290550 43.949726,10.290550 46.057041,10.290550 
	C46.057041,19.081690 46.057041,27.827681 46.057041,36.866005 
	C50.881138,36.866005 55.321049,36.866005 60.064400,36.866005 
	C60.153564,38.575142 60.227802,39.998203 60.317966,41.726494 
	C53.662067,41.726494 47.260151,41.726494 40.226803,41.726494 
	C40.226803,37.351109 40.226803,32.920235 40.226807,27.991966 
z"/>
<path fill="#080808" opacity="1.000000" stroke="none" 
	d="
M145.025894,10.027332 
	C146.780975,10.049971 148.068344,10.107828 149.743530,10.183116 
	C149.743530,19.119419 149.743530,27.832357 149.743530,36.867519 
	C154.551025,36.867519 158.975418,36.867519 163.743484,36.867519 
	C163.867432,38.571754 163.969742,39.978355 164.095383,41.705856 
	C157.403091,41.705856 150.878891,41.705856 144.558197,41.705856 
	C144.558197,31.083941 144.558197,20.573246 145.025894,10.027332 
z"/>
<path fill="#010101" opacity="1.000000" stroke="none" 
	d="
M115.905273,40.955612 
	C111.128227,41.691265 106.388855,41.968472 101.248131,42.269157 
	C101.151001,40.416203 101.078217,39.027729 100.988831,37.322544 
	C102.554527,37.116207 103.947388,36.932644 105.546600,36.721889 
	C105.546600,29.697241 105.546600,22.768841 105.546600,15.445746 
	C104.303673,15.228373 102.934059,14.988843 101.246719,14.693747 
	C101.166039,13.380465 101.078697,11.958817 100.974342,10.260157 
	C105.930428,10.260157 110.674973,10.260157 115.686180,10.260157 
	C115.686180,11.668665 115.686180,13.058204 115.686180,14.789636 
	C114.330261,14.917758 112.930267,15.050044 111.353279,15.199055 
	C111.353279,22.339056 111.353279,29.267879 111.353279,36.560276 
	C113.009773,37.464039 117.189423,36.056381 115.905273,40.955612 
z"/>
<path fill="#FCF7F9" opacity="1.000000" stroke="none" 
	d="
M249.836914,15.195297 
	C254.999832,14.420411 256.518036,16.504332 256.072205,21.059431 
	C255.717667,24.681923 255.757767,28.387331 256.064819,32.018536 
	C256.410553,36.107033 254.735626,37.413002 250.872025,37.024822 
	C248.434845,36.779953 245.953049,36.979141 243.247696,36.979141 
	C243.247696,29.766035 243.247696,22.845442 243.247696,15.195292 
	C245.218689,15.195292 247.297348,15.195292 249.836914,15.195297 
z"/>
<path fill="#F8F3F5" opacity="1.000000" stroke="none" 
	d="
M190.224945,25.237478 
	C186.064301,26.317242 181.912827,26.946190 177.842560,27.562838 
	C175.442657,20.828981 180.716171,18.794489 184.350861,14.124193 
	C186.528824,18.071400 188.381470,21.429031 190.224945,25.237478 
z"/>
<path fill="#F7F2F4" opacity="1.000000" stroke="none" 
	d="
M86.274757,26.694309 
	C81.933731,26.903072 77.981171,26.903072 74.112869,26.903072 
	C72.067917,20.768831 77.042557,18.682585 80.147865,15.176916 
	C83.497116,18.483461 88.022934,20.722818 86.274757,26.694309 
z"/>
</svg>